<?xml version="1.0" encoding="UTF-8"?>
<svg xmlns="http://www.w3.org/2000/svg" xmlns:xlink="http://www.w3.org/1999/xlink" width="1000px" height="740px" viewBox="0 0 999 740" version="1.1">
<g id="surface1">
<path style=" stroke:none;fill-rule:nonzero;fill:rgb(90.196078%,90.196078%,90.196078%);fill-opacity:1;" d="M 904.753906 737.121094 L 692.894531 737.121094 L 692.894531 730.617188 C 692.894531 718.855469 702.425781 709.324219 714.179688 709.324219 L 883.46875 709.324219 C 895.226562 709.324219 904.753906 718.855469 904.753906 730.617188 Z M 904.753906 737.121094 "/>
<path style=" stroke:none;fill-rule:nonzero;fill:rgb(90.196078%,90.196078%,90.196078%);fill-opacity:1;" d="M 793.867188 710.621094 L 800.308594 708.023438 C 732.898438 540.605469 739.390625 329.398438 796.375 148.214844 C 810.210938 105.3125 797.269531 58.289062 763.433594 28.519531 C 730.359375 -1.011719 684.757812 -8.207031 644.421875 9.742188 C 604.609375 27.460938 599.121094 58.328125 599.121094 89.042969 L 606.066406 89.042969 C 606.066406 56.253906 613.070312 31.300781 647.246094 16.089844 C 685.050781 -0.730469 727.796875 6.015625 758.808594 33.703125 C 790.589844 61.664062 802.746094 105.832031 789.75 146.128906 C 732.109375 329.402344 725.996094 542.0625 793.867188 710.621094 Z M 793.867188 710.621094 "/>
<path style=" stroke:none;fill-rule:nonzero;fill:rgb(90.196078%,90.196078%,90.196078%);fill-opacity:1;" d="M 628.640625 167.230469 C 628.640625 180.664062 617.757812 191.554688 604.332031 191.554688 C 590.902344 191.554688 580.019531 180.664062 580.019531 167.230469 C 580.019531 153.796875 590.902344 142.90625 604.332031 142.90625 C 617.757812 142.90625 628.640625 153.796875 628.640625 167.230469 Z M 628.640625 167.230469 "/>
<path style=" stroke:none;fill-rule:nonzero;fill:rgb(90.196078%,90.196078%,90.196078%);fill-opacity:1;" d="M 566.886719 209.632812 L 566.886719 163.542969 L 574.050781 163.542969 L 574.050781 209.632812 C 578.289062 211.347656 580.71875 215.828125 579.84375 220.316406 C 578.972656 224.808594 575.039062 228.046875 570.46875 228.046875 C 565.898438 228.046875 561.96875 224.808594 561.09375 220.316406 C 560.222656 215.828125 562.652344 211.347656 566.886719 209.632812 Z M 566.886719 209.632812 "/>
<path style=" stroke:none;fill-rule:nonzero;fill:rgb(26.27451%,67.058824%,96.470588%);fill-opacity:1;" d="M 532.265625 128.136719 C 532.289062 106.074219 550.15625 88.199219 572.203125 88.171875 L 638.195312 88.171875 C 660.253906 88.171875 678.132812 106.066406 678.132812 128.136719 C 678.132812 150.207031 660.253906 168.097656 638.195312 168.097656 L 572.203125 168.097656 C 550.15625 168.074219 532.289062 150.195312 532.265625 128.136719 Z M 532.265625 128.136719 "/>
<path style=" stroke:none;fill-rule:nonzero;fill:rgb(1.176471%,1.176471%,3.137255%);fill-opacity:1;" d="M 439.289062 375.605469 C 445.914062 290.796875 479.789062 250.386719 458.097656 225.046875 C 437.320312 200.773438 378.792969 205.789062 341.207031 229.078125 C 239.828125 291.902344 202.6875 542.292969 333.148438 664.625 C 457.117188 780.875 692.0625 743.644531 744.277344 648.496094 C 756.460938 626.292969 766.136719 587.375 748.308594 563.804688 C 704.039062 505.289062 543.09375 611.277344 471.535156 544.984375 C 429.125 505.699219 435.652344 422.148438 439.289062 375.605469 Z M 439.289062 375.605469 "/>
<path style=" stroke:none;fill-rule:nonzero;fill:rgb(100%,71.372549%,71.372549%);fill-opacity:1;" d="M 516.785156 333.472656 C 511.664062 335.828125 509.347656 341.835938 511.5625 347.019531 C 511.789062 347.523438 512.054688 348.007812 512.359375 348.46875 L 490.597656 377.535156 L 501.457031 393.773438 L 526.960938 350.726562 C 530.679688 347.828125 531.976562 342.785156 530.117188 338.453125 C 527.910156 333.429688 522.050781 331.148438 517.03125 333.359375 C 516.949219 333.394531 516.867188 333.433594 516.785156 333.472656 Z M 516.785156 333.472656 "/>
<path style=" stroke:none;fill-rule:nonzero;fill:rgb(26.27451%,67.058824%,96.470588%);fill-opacity:1;" d="M 516.765625 383.59375 C 518.191406 384.855469 514.242188 386.414062 510.0625 383.957031 C 508.867188 383.242188 508.355469 382.945312 508.222656 383.136719 C 507.886719 383.605469 509.847656 387.074219 509.324219 394.777344 C 509 399.375 501.367188 408.019531 492.703125 416.445312 C 480.988281 427.847656 467.363281 438.84375 467.363281 438.84375 L 462.582031 435.011719 L 412.425781 394.777344 L 403.960938 383.054688 C 404.734375 378.425781 405.898438 373.871094 407.441406 369.4375 C 409.5625 363.300781 412.085938 357.308594 414.992188 351.503906 C 416.550781 348.34375 418.148438 345.335938 419.679688 342.566406 L 446.550781 372.191406 L 469.070312 397.007812 C 469.070312 397.007812 475.625 386.441406 480.703125 383.566406 C 481.351562 383.152344 482.089844 382.898438 482.855469 382.824219 C 487.988281 382.585938 488.296875 379.789062 482.34375 373.699219 C 476.390625 367.609375 483.902344 373.296875 489.195312 371.65625 C 494.488281 370.015625 489.195312 371.65625 490.3125 367.554688 C 491.425781 363.453125 506.273438 355.226562 506.273438 355.226562 L 506.890625 355.777344 L 518.109375 365.6875 L 521.320312 368.523438 C 521.320312 368.523438 517.8125 378.148438 516.847656 380.179688 C 515.878906 382.207031 515.355469 382.316406 516.765625 383.59375 Z M 516.765625 383.59375 "/>
<path style=" stroke:none;fill-rule:nonzero;fill:rgb(100%,71.372549%,71.372549%);fill-opacity:1;" d="M 812.507812 570.332031 L 813.054688 555.503906 L 756.152344 546.339844 L 755.34375 568.222656 Z M 812.507812 570.332031 "/>
<path style=" stroke:none;fill-rule:nonzero;fill:rgb(18.431373%,18.039216%,25.490196%);fill-opacity:1;" d="M 802.179688 574.796875 L 801.640625 551.058594 L 811.78125 551.429688 L 828.160156 529.484375 C 829.820312 527.257812 832.734375 526.371094 835.347656 527.296875 C 837.964844 528.21875 839.679688 530.738281 839.578125 533.511719 L 838.535156 561.714844 L 828.324219 566.207031 L 838.289062 568.472656 L 837.894531 579.109375 Z M 802.179688 574.796875 "/>
<path style=" stroke:none;fill-rule:nonzero;fill:rgb(18.431373%,18.039216%,25.490196%);fill-opacity:1;" d="M 492.257812 576.105469 L 672.488281 580.679688 C 672.488281 580.679688 750.316406 585.175781 768.578125 573.292969 L 787.832031 570.859375 L 788.875 542.558594 C 788.875 542.558594 777.101562 542.644531 770.332031 539.488281 C 763.5625 536.332031 768.265625 532.472656 761.8125 536.269531 C 755.355469 540.066406 756.039062 540.523438 751.046875 538.777344 C 746.058594 537.03125 517.199219 502.128906 517.199219 502.128906 Z M 492.257812 576.105469 "/>
<path style=" stroke:none;fill-rule:nonzero;fill:rgb(100%,71.372549%,71.372549%);fill-opacity:1;" d="M 729.75 563.824219 L 740.230469 553.328125 L 704.75 507.886719 L 689.28125 523.382812 Z M 729.75 563.824219 "/>
<path style=" stroke:none;fill-rule:nonzero;fill:rgb(18.431373%,18.039216%,25.490196%);fill-opacity:1;" d="M 719.144531 554.691406 L 734.886719 536.921875 L 742.070312 544.097656 L 768.996094 539.152344 C 771.722656 538.652344 774.460938 539.984375 775.753906 542.441406 C 777.042969 544.898438 776.585938 547.910156 774.625 549.875 L 754.691406 569.84375 L 744.152344 566.183594 L 749.914062 574.628906 L 742.398438 582.15625 Z M 719.144531 554.691406 "/>
<path style=" stroke:none;fill-rule:nonzero;fill:rgb(18.431373%,18.039216%,25.490196%);fill-opacity:1;" d="M 421.152344 477.347656 L 422.941406 519.019531 C 425.050781 568.078125 479.050781 597.769531 520.917969 572.15625 C 521.691406 571.683594 522.464844 571.195312 523.242188 570.6875 C 524.40625 569.929688 539.117188 566.421875 538.632812 559.667969 C 538.152344 552.914062 542.03125 549.628906 545.460938 551.46875 C 548.894531 553.3125 593.824219 489.511719 593.824219 489.511719 C 593.824219 489.511719 687.175781 536.101562 707.773438 547.070312 C 707.773438 547.070312 727.132812 516.777344 725.730469 517.097656 C 724.328125 517.414062 610.242188 437.523438 610.242188 437.523438 C 610.242188 437.523438 591.65625 418.703125 568.601562 431.128906 C 568.121094 432.953125 568.53125 433.015625 568.53125 433.015625 L 492.371094 495.109375 L 481.609375 474.660156 Z M 421.152344 477.347656 "/>
<path style=" stroke:none;fill-rule:nonzero;fill:rgb(26.27451%,67.058824%,96.470588%);fill-opacity:1;" d="M 492.957031 425.25 C 492.8125 427.175781 492.539062 429.089844 492.136719 430.976562 C 491.589844 433.710938 490.707031 436.367188 489.503906 438.882812 C 489.503906 438.882812 489.503906 441.691406 484.132812 451.101562 C 478.757812 460.511719 485.472656 456.480469 489.503906 463.46875 C 493.535156 470.445312 489.503906 467.234375 485.03125 471.722656 C 482.40625 474.382812 481.4375 478.261719 482.492188 481.847656 C 482.492188 481.847656 424.773438 481.886719 414.023438 477.851562 C 403.273438 473.820312 400.828125 451.101562 410.464844 448.855469 C 420.082031 446.613281 407.546875 444.378906 401.890625 439.207031 C 396.234375 434.03125 407.546875 425.5625 407.546875 425.5625 C 407.546875 425.5625 402.886719 417.507812 403.273438 390.476562 C 403.332031 387.988281 403.558594 385.507812 403.960938 383.054688 C 404.734375 378.425781 405.898438 373.871094 407.441406 369.4375 C 409.5625 363.300781 412.085938 357.308594 414.992188 351.503906 C 416.550781 348.34375 418.148438 345.335938 419.679688 342.566406 C 419.921875 342.132812 420.152344 341.71875 420.390625 341.300781 C 423.308594 336.140625 425.96875 331.917969 427.726562 329.214844 C 429.085938 327.121094 429.90625 325.9375 429.90625 325.9375 L 439.6875 308.917969 L 472.335938 324.230469 L 470.480469 349.273438 L 476.109375 368.160156 L 478.703125 376.859375 L 480.703125 383.566406 L 483.796875 393.957031 C 483.796875 393.957031 482.949219 393.996094 483.957031 395.382812 C 488.597656 401.554688 491.605469 408.800781 492.703125 416.445312 C 493.089844 419.363281 493.175781 422.316406 492.957031 425.25 Z M 492.957031 425.25 "/>
<path style=" stroke:none;fill-rule:nonzero;fill:rgb(18.431373%,18.039216%,25.490196%);fill-opacity:1;" d="M 587.242188 427.949219 L 586.632812 427.753906 L 508.488281 402.574219 L 537.28125 308.058594 C 538.445312 304.242188 541.292969 301.175781 545.003906 299.730469 C 548.71875 298.285156 552.890625 298.625 556.320312 300.65625 L 606.257812 330.171875 C 614.414062 334.992188 617.957031 344.960938 614.664062 353.847656 Z M 587.242188 427.949219 "/>
<path style=" stroke:none;fill-rule:nonzero;fill:rgb(26.27451%,67.058824%,96.470588%);fill-opacity:1;" d="M 587.5625 433.960938 L 508.789062 408.578125 L 537.585938 314.0625 C 538.746094 310.246094 541.59375 307.179688 545.304688 305.734375 C 549.019531 304.289062 553.191406 304.628906 556.621094 306.660156 L 608.941406 332.792969 C 616.804688 337.441406 616.621094 349.464844 612.96875 359.328125 Z M 587.5625 433.960938 "/>
<path style=" stroke:none;fill-rule:nonzero;fill:rgb(1.176471%,1.176471%,3.137255%);fill-opacity:1;" d="M 579.675781 440.800781 C 576.007812 442.871094 571.640625 443.304688 567.636719 442 L 517.285156 425.777344 C 509.253906 423.148438 504.78125 414.589844 507.210938 406.492188 L 532.453125 323.632812 C 533.472656 320.289062 535.792969 317.496094 538.894531 315.886719 C 541.996094 314.277344 545.617188 313.984375 548.9375 315.074219 L 601.113281 332.214844 C 606.136719 333.863281 610.277344 337.476562 612.597656 342.226562 C 614.921875 346.980469 615.222656 352.46875 613.4375 357.449219 L 586.449219 432.730469 C 585.234375 436.152344 582.832031 439.015625 579.675781 440.800781 Z M 579.675781 440.800781 "/>
<path style=" stroke:none;fill-rule:nonzero;fill:rgb(100%,71.372549%,71.372549%);fill-opacity:1;" d="M 506.550781 273.125 C 506.550781 293.054688 490.40625 309.207031 470.488281 309.207031 C 450.570312 309.207031 434.425781 293.054688 434.425781 273.125 C 434.425781 253.199219 450.570312 237.042969 470.488281 237.042969 C 490.40625 237.042969 506.550781 253.199219 506.550781 273.125 Z M 506.550781 273.125 "/>
<path style=" stroke:none;fill-rule:nonzero;fill:rgb(18.431373%,18.039216%,25.490196%);fill-opacity:1;" d="M 348.542969 309.75 C 351.851562 316.171875 357.277344 321.246094 363.902344 324.117188 C 366.542969 325.320312 369.324219 326.203125 372.175781 326.738281 C 372.984375 323.535156 374.277344 320.476562 376.007812 317.667969 C 375.429688 320.835938 375.429688 324.082031 376.007812 327.25 C 380.355469 327.605469 384.730469 327.0625 388.863281 325.652344 C 397.085938 322.855469 403.507812 316.339844 406.199219 308.078125 C 409.070312 298.515625 405.976562 288.296875 405.734375 278.316406 C 405.484375 268.332031 410.222656 256.390625 420.128906 255.15625 C 427.671875 254.210938 426.738281 254.945312 432.160156 260.277344 C 424.578125 268.703125 443.0625 306.03125 452.980469 304.378906 C 458.589844 303.449219 462.714844 298.992188 463.824219 299.148438 C 469.503906 313.066406 452.417969 332.800781 465.96875 339.28125 L 464.964844 337.949219 C 457.871094 326.226562 478.859375 306.425781 471.765625 294.703125 C 469.789062 291.421875 467.734375 287.578125 468.957031 283.949219 C 470.117188 280.5 475.996094 279.410156 477.238281 282.546875 C 475.222656 275.351562 480.851562 266.90625 488.328125 266.171875 C 494.972656 265.515625 494.589844 267.410156 500.921875 269.140625 C 501.734375 266.410156 502.898438 263.796875 504.390625 261.375 C 503.886719 264.140625 503.824219 266.96875 504.207031 269.753906 C 506.492188 270.027344 508.800781 269.539062 510.78125 268.363281 C 516.628906 264.855469 516.804688 255.796875 512.785156 250.285156 C 508.761719 244.773438 502.019531 242.050781 495.511719 239.992188 C 495.453125 226.226562 458.4375 219.640625 451.628906 232.4375 C 450.929688 222.074219 439.058594 215.09375 428.832031 216.855469 C 418.605469 218.613281 410.539062 226.820312 405.621094 235.964844 C 400.703125 245.101562 398.261719 255.332031 394.660156 265.0625 C 391.0625 274.796875 385.914062 284.5 377.292969 290.277344 C 368.675781 296.042969 355.863281 296.566406 348.667969 289.089844 C 345.339844 295.566406 345.292969 303.238281 348.542969 309.75 Z M 348.542969 309.75 "/>
<path style=" stroke:none;fill-rule:nonzero;fill:rgb(1.176471%,1.176471%,3.137255%);fill-opacity:1;" d="M 385.546875 474.75 C 386.292969 474.152344 387.101562 473.640625 387.960938 473.222656 C 401.761719 466.347656 444.6875 448.507812 478.25 449.238281 C 542.832031 450.648438 625.015625 521.957031 605.890625 569.84375 C 591.335938 606.28125 518.976562 627.011719 466.160156 610.433594 C 392.164062 587.203125 362.957031 492.769531 385.546875 474.75 Z M 385.546875 474.75 "/>
<path style=" stroke:none;fill-rule:nonzero;fill:rgb(94.901961%,94.901961%,94.901961%);fill-opacity:1;" d="M 117.449219 737.257812 C 96.347656 733.277344 77.667969 638.15625 119.183594 591.3125 C 133.410156 575.261719 151.152344 568.273438 174.753906 561.773438 C 310.597656 524.355469 414.210938 560.015625 428.132812 568.722656 C 442.027344 577.410156 466.378906 708.304688 435.238281 726.835938 C 417.714844 737.257812 382.984375 742.472656 365.773438 730.308594 C 340.453125 712.414062 382.957031 665.992188 364.039062 634.746094 C 342.570312 599.289062 229.53125 587.347656 172.859375 622.585938 C 112.394531 660.179688 237.113281 759.847656 117.449219 737.257812 Z M 117.449219 737.257812 "/>
<path style=" stroke:none;fill-rule:nonzero;fill:rgb(80%,80%,80%);fill-opacity:1;" d="M 258.535156 575.535156 L 177.917969 575.535156 C 158.015625 556.453125 143.785156 538.0625 155.179688 522.796875 C 155.179688 513.660156 162.582031 506.25 171.714844 506.25 L 264.734375 506.25 C 273.867188 506.25 281.273438 513.660156 281.273438 522.796875 C 285.609375 540.191406 277.859375 557.773438 258.535156 575.535156 Z M 258.535156 575.535156 "/>
<path style=" stroke:none;fill-rule:nonzero;fill:rgb(80%,80%,80%);fill-opacity:1;" d="M 244.054688 485.421875 C 242.488281 485.492188 241.042969 484.578125 240.4375 483.128906 C 239.832031 481.683594 240.195312 480.011719 241.347656 478.945312 L 241.605469 477.929688 C 241.570312 477.847656 241.535156 477.765625 241.503906 477.683594 C 239.925781 473.960938 236.273438 471.546875 232.230469 471.5625 C 228.1875 471.578125 224.550781 474.015625 223.003906 477.753906 C 219.976562 485.042969 216.125 492.347656 215.175781 500.054688 C 214.761719 503.464844 214.9375 506.917969 215.699219 510.265625 C 208.59375 494.753906 204.902344 477.898438 204.878906 460.835938 C 204.875 456.554688 205.113281 452.277344 205.589844 448.019531 C 205.984375 444.53125 206.527344 441.070312 207.226562 437.628906 C 211.035156 418.972656 219.214844 401.488281 231.089844 386.605469 C 236.835938 383.46875 241.484375 378.644531 244.40625 372.78125 C 245.464844 370.675781 246.214844 368.425781 246.628906 366.101562 C 245.980469 366.1875 244.183594 356.308594 244.671875 355.703125 C 243.769531 354.332031 242.152344 353.648438 241.164062 352.308594 C 236.257812 345.652344 229.496094 346.816406 225.964844 355.863281 C 218.425781 359.667969 218.351562 365.984375 222.980469 372.058594 C 225.921875 375.921875 226.328125 381.152344 228.910156 385.289062 C 228.644531 385.628906 228.367188 385.957031 228.101562 386.296875 C 223.246094 392.546875 219.011719 399.257812 215.460938 406.332031 C 216.324219 398.40625 215.296875 390.386719 212.457031 382.9375 C 209.578125 375.992188 204.1875 370.144531 199.4375 364.144531 C 193.734375 356.933594 182.039062 360.078125 181.035156 369.21875 C 181.023438 369.308594 181.015625 369.394531 181.003906 369.484375 C 181.710938 369.882812 182.402344 370.304688 183.078125 370.753906 C 184.8125 371.914062 185.660156 374.023438 185.207031 376.0625 C 184.757812 378.105469 183.097656 379.65625 181.035156 379.976562 L 180.929688 379.992188 C 181.183594 382.535156 181.625 385.054688 182.261719 387.53125 C 176.167969 411.101562 189.320312 419.6875 208.097656 420.074219 C 208.511719 420.285156 208.917969 420.5 209.332031 420.699219 C 205.765625 430.8125 203.53125 441.34375 202.679688 452.03125 C 202.195312 458.335938 202.222656 464.667969 202.761719 470.96875 L 202.730469 470.746094 C 201.371094 463.742188 197.636719 457.417969 192.15625 452.847656 C 184.015625 446.160156 172.519531 443.695312 163.738281 438.320312 C 161.832031 437.097656 159.390625 437.089844 157.480469 438.304688 C 155.570312 439.519531 154.535156 441.734375 154.832031 443.980469 C 154.84375 444.058594 154.855469 444.136719 154.871094 444.214844 C 156.179688 444.746094 157.453125 445.363281 158.683594 446.054688 C 159.390625 446.453125 160.082031 446.875 160.757812 447.320312 C 162.492188 448.480469 163.339844 450.589844 162.886719 452.632812 C 162.4375 454.671875 160.777344 456.226562 158.714844 456.542969 L 158.609375 456.558594 C 158.535156 456.570312 158.472656 456.582031 158.398438 456.59375 C 160.632812 461.933594 163.773438 466.851562 167.675781 471.128906 C 171.484375 491.707031 187.847656 493.660156 205.347656 487.667969 L 205.355469 487.667969 C 207.277344 496.015625 210.058594 504.140625 213.65625 511.914062 L 243.3125 511.914062 C 243.417969 511.582031 243.515625 511.242188 243.609375 510.914062 C 240.863281 511.085938 238.109375 510.921875 235.402344 510.425781 C 237.605469 507.722656 239.804688 505 242.003906 502.300781 C 242.054688 502.25 242.101562 502.195312 242.144531 502.140625 C 243.257812 500.757812 244.386719 499.386719 245.5 498.003906 L 245.503906 498 C 245.5625 493.765625 245.074219 489.535156 244.054688 485.421875 Z M 244.054688 485.421875 "/>
<path style=" stroke:none;fill-rule:nonzero;fill:rgb(80%,80%,80%);fill-opacity:1;" d="M 345.199219 571.214844 C 346.210938 574.152344 348.996094 576.109375 352.105469 576.050781 L 381.679688 575.289062 C 384.808594 575.230469 387.527344 573.113281 388.355469 570.089844 L 392.539062 525.3125 C 394.023438 525.984375 395.640625 526.320312 397.269531 526.285156 C 403.226562 526.136719 407.933594 521.183594 407.78125 515.226562 C 407.632812 509.269531 402.683594 504.558594 396.730469 504.710938 C 396.078125 504.707031 395.429688 504.773438 394.792969 504.910156 C 393.390625 503.394531 391.414062 502.542969 389.351562 502.5625 L 343.859375 503.738281 C 343.480469 503.75 343.105469 503.796875 342.734375 503.878906 C 340.71875 504.253906 338.960938 505.484375 337.917969 507.253906 C 336.875 509.023438 336.648438 511.160156 337.296875 513.109375 Z M 393.398438 522.273438 L 396.375 511.601562 C 396.714844 510.371094 396.722656 509.070312 396.398438 507.832031 C 396.542969 507.832031 396.671875 507.765625 396.816406 507.765625 C 401.066406 507.675781 404.585938 511.046875 404.6875 515.300781 C 404.785156 519.554688 401.425781 523.085938 397.175781 523.199219 C 395.855469 523.238281 394.550781 522.917969 393.398438 522.273438 Z M 393.398438 522.273438 "/>
<path style=" stroke:none;fill-rule:nonzero;fill:rgb(100%,100%,100%);fill-opacity:1;" d="M 342.734375 503.878906 C 343.703125 509.421875 354.601562 513.320312 367.703125 512.640625 C 379.753906 512.085938 389.605469 507.855469 391.410156 502.835938 C 390.742188 502.640625 390.046875 502.546875 389.351562 502.5625 L 343.859375 503.738281 C 343.480469 503.75 343.105469 503.796875 342.734375 503.878906 Z M 342.734375 503.878906 "/>
<path style=" stroke:none;fill-rule:nonzero;fill:rgb(79.215686%,79.215686%,79.215686%);fill-opacity:1;" d="M 1.582031 739.359375 L 997.589844 739.765625 C 998.464844 739.765625 999.175781 739.058594 999.175781 738.183594 C 999.175781 737.308594 998.464844 736.597656 997.589844 736.597656 L 1.582031 736.1875 C 0.710938 736.1875 0 736.898438 0 737.773438 C 0 738.648438 0.710938 739.359375 1.582031 739.359375 Z M 1.582031 739.359375 "/>
<path style=" stroke:none;fill-rule:nonzero;fill:rgb(100%,71.372549%,71.372549%);fill-opacity:1;" d="M 560.214844 385.191406 C 554.582031 385.394531 550.136719 390.050781 550.1875 395.691406 C 550.203125 396.242188 550.261719 396.789062 550.367188 397.332031 L 519.105469 415.796875 L 522.890625 434.960938 L 562.976562 405.035156 C 567.523438 403.789062 570.65625 399.632812 570.609375 394.917969 C 570.5 389.433594 565.96875 385.074219 560.484375 385.179688 C 560.394531 385.183594 560.304688 385.1875 560.214844 385.191406 Z M 560.214844 385.191406 "/>
<path style=" stroke:none;fill-rule:nonzero;fill:rgb(26.27451%,67.058824%,96.470588%);fill-opacity:1;" d="M 534.605469 429.207031 C 533.769531 428.089844 533.410156 427.617188 533.222656 427.746094 C 532.730469 428.042969 533.203125 432.003906 529.761719 438.90625 C 524.914062 448.601562 474.097656 463.449219 474.097656 463.449219 L 467.839844 451.988281 L 440.320312 401.628906 L 430.835938 361.261719 C 430.503906 359.851562 430.34375 358.410156 430.355469 356.964844 C 438.8125 351.011719 447.796875 345.835938 457.1875 341.511719 C 460.941406 343.640625 463.804688 347.054688 465.25 351.121094 L 484.195312 404.265625 L 491.753906 425.480469 C 491.753906 425.480469 505.089844 415.941406 509.925781 417.695312 C 514.753906 419.457031 516.125 416.984375 512.96875 409.074219 C 509.8125 401.167969 514.550781 409.308594 520.066406 409.824219 C 525.589844 410.351562 520.066406 409.824219 522.675781 406.46875 C 525.285156 403.113281 542.15625 401.226562 542.15625 401.226562 L 542.511719 401.972656 L 549.050781 415.429688 L 550.921875 419.296875 C 550.921875 419.296875 543.992188 426.820312 542.320312 428.320312 C 540.640625 429.832031 540.121094 429.726562 540.941406 431.445312 C 541.753906 433.160156 537.511719 433.082031 534.605469 429.207031 Z M 534.605469 429.207031 "/>
</g>
</svg>
